<?xml version="1.0" encoding="utf-8"?><svg xml:space="preserve" viewBox="0 0 100 100" y="0" x="0" xmlns="http://www.w3.org/2000/svg" id="Layer_1" version="1.1" width="200px" height="200px" xmlns:xlink="http://www.w3.org/1999/xlink" style="width:100%;height:100%;background-size:initial;background-repeat-y:initial;background-repeat-x:initial;background-position-y:initial;background-position-x:initial;background-origin:initial;background-image:initial;background-color:rgb(241, 242, 243);background-clip:initial;background-attachment:initial;animation-play-state:paused" ><g class="ldl-scale" style="transform-origin:50% 50%;transform:rotate(0deg) scale(0.8, 0.8);animation-play-state:paused" ><path fill="#f4e6c8" d="M21.3 31.8c0 11.9.5 23.9 5.6 33 5.3 9.4 15.6 16.2 23 18.2 7.2-2.1 17.3-9.1 22.5-18.3 5.2-9.1 6-21.1 6.1-32.9-12.4-1.3-23.9-9.3-28.6-13-4.6 3.8-16.2 11.7-28.6 13z" style="fill:rgb(34, 11, 9);animation-play-state:paused" ></path>
<g style="animation-play-state:paused" ><path d="M46 69.1L28.8 51.9l5.6-5.6L46 58l19.6-19.6 5.6 5.6z" fill="#a0c8d7" style="fill:rgb(211, 76, 49);animation-play-state:paused" ></path></g>
<path fill="#77a4bd" d="M52.2 12L50 10l-2.2 2c-.2.1-15.3 13.2-29.8 13.2h-3.4v3.4c0 13.1 0 28 6.4 39.5 6.5 11.5 19.1 19.6 28.3 21.7l.8.2.8-.2c8.8-2.2 21.1-10.4 27.5-21.7 6.5-11.4 7.1-25.7 7.1-39.4v-3.4H82C67.5 25.2 52.4 12.2 52.2 12zm20.3 52.7C67.2 73.9 57.1 80.9 49.9 83c-7.4-2-17.8-8.8-23-18.2-5.1-9.1-5.5-21.1-5.6-33 12.4-1.3 23.9-9.3 28.7-13 4.7 3.7 16.3 11.6 28.6 13-.1 11.8-.9 23.8-6.1 32.9z" style="fill:rgb(232, 132, 50);animation-play-state:paused" ></path>
<metadata xmlns:d="https://loading.io/stock/" style="animation-play-state:paused" ><d:name style="animation-play-state:paused" >shield</d:name>
<d:tags style="animation-play-state:paused" >protect,defense,armor,barrier,safe,security,shield,web application</d:tags>
<d:license style="animation-play-state:paused" >by</d:license>
<d:slug style="animation-play-state:paused" >wnzrf7</d:slug></metadata></g><!-- generated by https://loading.io/ --></svg>