<?xml version="1.0" encoding="utf-8"?><svg xml:space="preserve" viewBox="0 0 100 100" y="0" x="0" xmlns="http://www.w3.org/2000/svg" id="Layer_1" version="1.1" width="200px" height="200px" xmlns:xlink="http://www.w3.org/1999/xlink" style="width:100%;height:100%;background-size:initial;background-repeat-y:initial;background-repeat-x:initial;background-position-y:initial;background-position-x:initial;background-origin:initial;background-image:initial;background-color:rgb(241, 242, 243);background-clip:initial;background-attachment:initial;animation-play-state:paused" ><g class="ldl-scale" style="transform-origin:50% 50%;transform:rotate(0deg) scale(0.8, 0.8);animation-play-state:paused" ><path d="M19.31 9.41v81.18h61.38V28.153L61.947 9.41z" fill="#e0e0e0" style="fill:rgb(223, 19, 23);animation-play-state:paused" ></path>
<path d="M80.537 28L62 9.463V28z" fill="#656666" style="fill:rgb(228, 147, 75);animation-play-state:paused" ></path>
<path d="M27.542 47.939h6.416v6.416h-6.416z" fill="#323232" style="fill:rgb(226, 187, 139);animation-play-state:paused" ></path>
<path d="M40.375 47.939h6.416v6.416h-6.416z" fill="#323232" style="fill:rgb(226, 187, 139);animation-play-state:paused" ></path>
<path d="M53.208 47.939h6.416v6.416h-6.416z" fill="#323232" style="fill:rgb(226, 187, 139);animation-play-state:paused" ></path>
<path d="M66.041 47.939h6.416v6.416h-6.416z" fill="#323232" style="fill:rgb(226, 187, 139);animation-play-state:paused" ></path>
<path d="M33.959 54.355h6.416v6.416h-6.416z" fill="#323232" style="fill:rgb(226, 187, 139);animation-play-state:paused" ></path>
<path d="M46.792 54.355h6.416v6.416h-6.416z" fill="#323232" style="fill:rgb(226, 187, 139);animation-play-state:paused" ></path>
<path d="M59.625 54.355h6.416v6.416h-6.416z" fill="#323232" style="fill:rgb(226, 187, 139);animation-play-state:paused" ></path>
<path d="M27.542 60.771h6.416v6.416h-6.416z" fill="#323232" style="fill:rgb(226, 187, 139);animation-play-state:paused" ></path>
<path d="M40.375 60.771h6.416v6.416h-6.416z" fill="#323232" style="fill:rgb(226, 187, 139);animation-play-state:paused" ></path>
<path d="M53.208 60.771h6.416v6.416h-6.416z" fill="#323232" style="fill:rgb(226, 187, 139);animation-play-state:paused" ></path>
<path d="M66.041 60.771h6.416v6.416h-6.416z" fill="#323232" style="fill:rgb(226, 187, 139);animation-play-state:paused" ></path>
<path d="M33.959 67.188h6.416v6.416h-6.416z" fill="#323232" style="fill:rgb(226, 187, 139);animation-play-state:paused" ></path>
<path d="M46.792 67.188h6.416v6.416h-6.416z" fill="#323232" style="fill:rgb(226, 187, 139);animation-play-state:paused" ></path>
<path d="M59.625 67.188h6.416v6.416h-6.416z" fill="#323232" style="fill:rgb(226, 187, 139);animation-play-state:paused" ></path>
<path d="M27.542 73.604h6.416v6.416h-6.416z" fill="#323232" style="fill:rgb(226, 187, 139);animation-play-state:paused" ></path>
<path d="M40.375 73.604h6.416v6.416h-6.416z" fill="#323232" style="fill:rgb(226, 187, 139);animation-play-state:paused" ></path>
<path d="M53.208 73.604h6.416v6.416h-6.416z" fill="#323232" style="fill:rgb(226, 187, 139);animation-play-state:paused" ></path>
<path d="M66.041 73.604h6.416v6.416h-6.416z" fill="#323232" style="fill:rgb(226, 187, 139);animation-play-state:paused" ></path>
<metadata xmlns:d="https://loading.io/stock/" style="animation-play-state:paused" ><d:name style="animation-play-state:paused" >png</d:name>
<d:tags style="animation-play-state:paused" >png,transparent,image,opacity,file</d:tags>
<d:license style="animation-play-state:paused" >by</d:license>
<d:slug style="animation-play-state:paused" >w9e2p7</d:slug></metadata></g><!-- generated by https://loading.io/ --></svg>